<?xml version="1.0" encoding="UTF-8"?>
<svg width="42" height="42" version="1.1" viewBox="0 0 64 64" xmlns="http://www.w3.org/2000/svg">
 <g transform="translate(586.86 -749.09)">
  <path d="m-544.48 813.03c-1.5364-0.19016-2.6037-0.96756-3.2005-2.3311-0.36891-0.84279-0.61173-2.1506-0.61386-3.3062-7.1e-4 -0.38643-0.0251-0.7026-0.0543-0.7026s-0.23852 0.2516-0.46527 0.55912c-0.86595 1.1744-2.5173 2.9527-3.3046 3.5588-1.669 1.2847-3.2111 1.7526-4.5254 1.3732-0.54495-0.15731-0.95216-0.40153-1.492-0.89475-0.9812-0.89652-1.228-1.5933-1.394-3.9373-0.0393-0.55413-0.0794-1.0144-0.0892-1.0227-0.01-8e-3 -0.31986 0.23447-0.68906 0.5396-2.6672 2.2044-4.7384 3.3592-7.7183 4.3036-2.0496 0.64956-4.0332 0.99384-6.0606 1.0518-1.1961 0.0342-1.247 0.0304-1.5546-0.11738-0.19938-0.0958-0.40135-0.26815-0.54152-0.46215-0.6807-0.94207-0.27607-2.1308 0.8172-2.4007 0.13986-0.0345 0.82666-0.12464 1.5262-0.20024 2.8756-0.31079 4.7921-0.79371 6.8541-1.727 1.769-0.8007 3.1572-1.7442 4.6328-3.1488 1.6243-1.5461 2.8489-3.1701 4.7401-6.2859 0.95343-1.5708 1.2205-1.9117 1.6468-2.1026 0.40497-0.18133 1.1684-0.20738 1.491-0.0509 0.31284 0.15183 0.77621 0.64196 0.87888 0.92959 0.13538 0.37942 0.0457 0.82195-0.45836 2.2613-1.3513 3.8589-2.0147 6.7071-2.0136 8.6449 7.1e-4 1.122 0.14748 1.4155 0.70817 1.4155 0.76943 0 2.9531-2.3943 4.8878-5.3594 2.0246-3.1028 3.8546-6.7626 5.2125-10.425 0.64532-1.7402 0.86249-2.1568 1.258-2.4129 0.2412-0.15621 0.39422-0.20088 0.76237-0.22256 0.25333-0.0149 0.60277 0.01 0.77656 0.0547 0.42407 0.10983 0.90857 0.51414 1.0623 0.88659 0.1185 0.287 0.11739 0.31998-0.0335 0.99553-0.0858 0.38428-0.47175 1.8163-0.85761 3.1823-1.1945 4.2285-1.7463 6.4427-2.1174 8.4966-0.29883 1.654-0.3696 2.4237-0.34258 3.7254 0.0216 1.0387 0.0423 1.2123 0.17711 1.4824 0.19744 0.39562 0.67684 0.73319 0.96551 0.67985 0.6341-0.11709 1.4397-0.79397 2.1843-1.8354 0.56596-0.79155 1.4713-2.4801 1.9996-3.7294 0.32322-0.76437 0.4389-0.96391 0.68752-1.1857 0.44193-0.39425 0.71714-0.50524 1.2528-0.50524 0.53851 0 0.78822 0.10392 1.1983 0.49865 0.52312 0.50356 0.54025 0.88501 0.117 2.6062-0.3512 1.4282-0.46742 2.092-0.46697 2.6672 7.5e-4 0.95161 0.18496 1.2187 0.83747 1.2141 1.4455-0.0101 3.3456-2.1776 4.3231-4.9314 0.34258-0.96508 0.56495-1.366 0.9241-1.6662 0.61169-0.51115 1.587-0.45682 2.2142 0.12336 0.55428 0.51267 0.58901 1.1266 0.15091 2.6677-0.45835 1.6122-0.58602 2.9694-0.3287 3.4935 0.16022 0.3264 1.3795 0.98907 1.8542 0.98907s0.86419 0.39989 2.047-0.56623c0.88524-1.0429 1.6571-0.25781 1.5928 0.58079l-0.0132 2.1214s-5.0715 0.78861-6.7481 0.0544c-0.42812-0.18748-0.65271-0.34815-1.1687-0.83606l-0.63877-0.60402-0.35048 0.2882c-0.89973 0.73979-1.9376 1.2662-2.7566 1.3981-0.72632 0.117-2.1513 0.0455-2.6629-0.1336-0.5578-0.19529-1.1704-0.58711-1.7105-1.0941l-0.45502-0.42713-0.20566 0.15482c-0.11312 0.0851-0.39749 0.30512-0.63193 0.48882-0.78293 0.61344-1.7199 1.0013-2.7342 1.1318-0.59554 0.0766-0.79769 0.0773-1.3829 5e-3zm-39.638-10.242c0.95378-0.89149 2.798-2.6152 4.0984-3.8304l2.3642-2.2096 0.67764 0.0441c1.1637 0.0757 1.8725-0.22853 2.2894-0.98253 0.18628-0.33689 0.21222-0.45029 0.20867-0.9122-5e-3 -0.61341-0.16096-0.98292-0.58314-1.3791-0.82914-0.77816-2.3048-0.77502-3.0466 6e-3 -0.49473 0.52117-0.63035 0.99907-0.50884 1.7929l0.075 0.49018-4.146 3.8372c-2.2803 2.1104-4.1555 3.8284-4.1671 3.8176-0.0116-0.0107 0.35792-0.7375 0.82123-1.615 1.3385-2.5352 2.4102-4.9492 3.2185-7.2489 0.43814-1.2467 0.90305-2.8456 1.033-3.5524 0.14632-0.79593 3e-3 -0.70508 5.2589-3.3414 5.5843-2.8011 5.7391-2.8739 5.9362-2.7909 0.17943 0.0756 4.3676 3.8738 4.7014 4.2635l0.20204 0.23595-0.35811 0.64818c-1.496 2.7078-5.2264 9.0338-5.4743 9.2828-0.1629 0.16395-0.31239 0.22604-0.76759 0.31883-1.8747 0.38217-3.7961 0.91972-6.0062 1.6802-2.2938 0.78939-3.5485 1.2912-6.5715 2.6278l-0.98926 0.43744zm20.721-14.766c-0.49987-0.22798-4.4288-3.8045-5.4356-4.9481-0.29628-0.33653-0.33903-0.42488-0.36365-0.75162l-0.0279-0.37026 0.64756-0.74561c1.0803-1.2438 3.8732-4.1884 7.6286-8.043 5.8879-6.0431 12.348-11.923 17.704-16.113 4.6615-3.647 8.7853-6.2831 11.499-7.3502 1.1954-0.47005 1.7682-0.60775 2.5627-0.61617 0.64321-7e-3 0.74349 9e-3 1.1181 0.17938 0.94778 0.43045 1.2502 1.4048 0.86835 2.7973-0.83775 3.0548-4.5645 8.0351-10.922 14.596-5.8895 6.0782-10.815 10.48-20.707 18.503-3.8086 3.0892-3.9202 3.1591-4.5724 2.8616zm17.087-6.2624c-0.8591-0.2583-1.3626-1.2988-0.96636-1.9972 0.33673-0.59351 1.4568-1.3938 3.7494-2.679 0.66068-0.37037 1.5987-0.91547 2.0845-1.2114 3.8025-2.3158 7.9473-6.0449 10.822-9.7371 2.1-2.6971 3.4565-5.1232 3.5733-6.3907l0.0408-0.44313-0.32109-0.28457c-0.22623-0.2005-0.45894-0.327-0.78773-0.42819-0.25663-0.079-0.46661-0.15971-0.46661-0.17937 0-0.0197 0.37044-0.64205 0.8232-1.3831 0.8514-1.3936 1.5086-2.5817 1.5086-2.7275 0-0.15975 0.13255-0.15683 0.6478 0.0143 1.5781 0.52419 2.3763 1.1548 2.6376 2.0838 0.14537 0.5168 0.1432 1.632-5e-3 2.439-0.57136 3.1165-3.0275 7.5887-6.1461 11.191-3.6954 4.2684-9.9208 9.1704-13.987 11.014-1.5508 0.70319-2.5294 0.92247-3.207 0.71875z" style="fill:#000000;stroke-width:.067958"/>
 </g>
</svg>
